# xmcd
#
# Track frame offsets:
#      150
#      18335
#      34623
#      51023
#      67190
#      85976
#      109378
#      126691
#      150332
#      168799
#      186124
#      210864
#      226882
#      251203
#      268598
#      287541
#      308040
#      329736
# 
# Disc length: 4593 seconds
#
# Revision: 4
# Processed by: cddbd v1.5PL3 Copyright (c) Steve Scherf et al.
#
# Submitted via: FreeRIP 1.21
#
DISCID=fc11ef12
DTITLE=Desconhecido - Desconhecido
DYEAR=1900
DGENRE=blues
TTITLE0=Trilha 1
TTITLE1=Trilha 2
TTITLE2=Trilha 3
TTITLE3=Trilha 4
TTITLE4=Trilha 5
TTITLE5=Trilha 6
TTITLE6=Trilha 7
TTITLE7=Trilha 8
TTITLE8=Trilha 9
TTITLE9=Trilha 10
TTITLE10=Trilha 11
TTITLE11=Trilha 12
TTITLE12=Trilha 13
TTITLE13=Trilha 14
TTITLE14=Trilha 15
TTITLE15=Trilha 16
TTITLE16=Trilha 17
TTITLE17=Trilha 18
EXTD=
EXTT0=
EXTT1=
EXTT2=
EXTT3=
EXTT4=
EXTT5=
EXTT6=
EXTT7=
EXTT8=
EXTT9=
EXTT10=
EXTT11=
EXTT12=
EXTT13=
EXTT14=
EXTT15=
EXTT16=
EXTT17=
PLAYORDER=
